<svg xmlns="http://www.w3.org/2000/svg" width="1200" height="675" viewBox="0 0 1200 675" fill="none">
  <rect width="1200" height="675" rx="40" fill="#0C1020"/>
  <rect x="62" y="62" width="1076" height="551" rx="34" fill="#0F1931" stroke="rgba(52,211,153,0.22)"/>
  <text x="104" y="128" fill="#87F6D0" font-size="20" font-family="Segoe UI, Arial, sans-serif" letter-spacing="3">ATOMIC-UI PROOF EXAMPLE</text>
  <text x="104" y="186" fill="#F8FBFF" font-size="56" font-weight="700" font-family="Segoe UI, Arial, sans-serif">Good Screenshot</text>
  <text x="104" y="226" fill="#B8C4DA" font-size="24" font-family="Segoe UI, Arial, sans-serif">All key payment details are visible in one clean screenshot.</text>
  <rect x="104" y="270" width="210" height="42" rx="21" fill="#34D399"/>
  <text x="144" y="297" fill="#052114" font-size="18" font-weight="700" font-family="Segoe UI, Arial, sans-serif">GOOD TO SEND</text>

  <rect x="104" y="342" width="640" height="210" rx="28" fill="#F8FBFF"/>
  <rect x="134" y="374" width="580" height="32" rx="16" fill="#DDE5F2"/>
  <rect x="134" y="430" width="250" height="22" rx="11" fill="#C9D5E8"/>
  <rect x="412" y="430" width="182" height="22" rx="11" fill="#C9D5E8"/>
  <rect x="134" y="472" width="204" height="22" rx="11" fill="#C9D5E8"/>
  <rect x="134" y="510" width="440" height="22" rx="11" fill="#C9D5E8"/>
  <rect x="612" y="426" width="102" height="106" rx="18" fill="#34D399" opacity="0.18"/>
  <text x="148" y="390" fill="#0F172A" font-size="16" font-weight="700" font-family="Segoe UI, Arial, sans-serif">KBZ Pay Transfer Complete</text>
  <text x="148" y="445" fill="#0F172A" font-size="18" font-weight="700" font-family="Segoe UI, Arial, sans-serif">Amount: 6,000 MMK</text>
  <text x="430" y="445" fill="#0F172A" font-size="18" font-weight="700" font-family="Segoe UI, Arial, sans-serif">Transfer ID: TX-503821</text>
  <text x="148" y="487" fill="#0F172A" font-size="18" font-weight="700" font-family="Segoe UI, Arial, sans-serif">Time: 20:38</text>
  <text x="148" y="526" fill="#475569" font-size="16" font-family="Segoe UI, Arial, sans-serif">Keep the amount, transfer ID, time, and account reference visible together.</text>

  <rect x="780" y="342" width="286" height="210" rx="28" fill="#0C1428" stroke="rgba(52,211,153,0.22)"/>
  <text x="812" y="392" fill="#F8FBFF" font-size="26" font-weight="700" font-family="Segoe UI, Arial, sans-serif">Checklist</text>
  <text x="812" y="430" fill="#D8F5EC" font-size="20" font-family="Segoe UI, Arial, sans-serif">• Amount is readable</text>
  <text x="812" y="462" fill="#D8F5EC" font-size="20" font-family="Segoe UI, Arial, sans-serif">• Transfer ID is readable</text>
  <text x="812" y="494" fill="#D8F5EC" font-size="20" font-family="Segoe UI, Arial, sans-serif">• Payment time is readable</text>
  <text x="812" y="526" fill="#D8F5EC" font-size="20" font-family="Segoe UI, Arial, sans-serif">• One clean screenshot only</text>
</svg>
