<svg width="1280" height="720" viewBox="0 0 1280 720" fill="none" xmlns="http://www.w3.org/2000/svg">
  <rect width="1280" height="720" rx="36" fill="#14070B"/>
  <rect x="48" y="48" width="1184" height="624" rx="30" fill="#1A0E15" stroke="#5A1C2C" stroke-width="2"/>
  <rect x="96" y="96" width="1088" height="78" rx="22" fill="#2A1220"/>
  <text x="132" y="146" fill="#FFF1F4" font-family="Arial, sans-serif" font-size="34" font-weight="700">Bad payment screenshot</text>
  <rect x="884" y="114" width="240" height="42" rx="21" fill="#4A1221"/>
  <text x="946" y="142" fill="#FF9DB2" font-family="Arial, sans-serif" font-size="22" font-weight="700">LIKELY REJECTED</text>
  <rect x="96" y="216" width="514" height="360" rx="24" fill="#351623"/>
  <rect x="132" y="258" width="242" height="40" rx="12" fill="#4B2134"/>
  <rect x="132" y="324" width="170" height="28" rx="10" fill="#5C293F"/>
  <rect x="132" y="380" width="288" height="20" rx="10" fill="#6A304A" opacity="0.55"/>
  <rect x="132" y="418" width="212" height="20" rx="10" fill="#6A304A" opacity="0.4"/>
  <rect x="132" y="460" width="250" height="20" rx="10" fill="#6A304A" opacity="0.3"/>
  <path d="M152 252L554 550" stroke="#FF6C88" stroke-width="14" stroke-linecap="round"/>
  <path d="M554 252L152 550" stroke="#FF6C88" stroke-width="14" stroke-linecap="round"/>
  <rect x="654" y="222" width="486" height="342" rx="28" fill="#220C14" stroke="#6A2034" stroke-width="2"/>
  <circle cx="716" cy="286" r="28" fill="#4A1221"/>
  <path d="M704 274L728 298M728 274L704 298" stroke="#FF9DB2" stroke-width="8" stroke-linecap="round"/>
  <text x="764" y="294" fill="#FFF1F4" font-family="Arial, sans-serif" font-size="28" font-weight="700">Common problems</text>
  <text x="700" y="352" fill="#FFD5DE" font-family="Arial, sans-serif" font-size="24">1. Amount missing or cropped out</text>
  <text x="700" y="398" fill="#FFD5DE" font-family="Arial, sans-serif" font-size="24">2. Blur or low quality</text>
  <text x="700" y="444" fill="#FFD5DE" font-family="Arial, sans-serif" font-size="24">3. Old screenshot reused on a new order</text>
  <text x="700" y="490" fill="#FFD5DE" font-family="Arial, sans-serif" font-size="24">4. Payment time or account details not visible</text>
  <rect x="96" y="610" width="1044" height="34" rx="17" fill="#4A1221"/>
  <text x="132" y="633" fill="#FFB6C6" font-family="Arial, sans-serif" font-size="22" font-weight="700">Avoid blurry crops, missing totals, and duplicate screenshots. Replace the proof if it is unclear.</text>
</svg>
