<svg width="1280" height="720" viewBox="0 0 1280 720" fill="none" xmlns="http://www.w3.org/2000/svg">
  <rect width="1280" height="720" rx="36" fill="#08101F"/>
  <rect x="48" y="48" width="1184" height="624" rx="30" fill="#0E1730" stroke="#1E335F" stroke-width="2"/>
  <rect x="96" y="96" width="1088" height="78" rx="22" fill="#102143"/>
  <text x="132" y="146" fill="#EAF4FF" font-family="Arial, sans-serif" font-size="34" font-weight="700">Good payment screenshot</text>
  <rect x="864" y="114" width="260" height="42" rx="21" fill="#123B27"/>
  <text x="932" y="142" fill="#8EF5B0" font-family="Arial, sans-serif" font-size="22" font-weight="700">READY TO REVIEW</text>
  <rect x="96" y="216" width="514" height="360" rx="24" fill="#13264D"/>
  <rect x="132" y="258" width="442" height="44" rx="12" fill="#1A3666"/>
  <rect x="132" y="324" width="228" height="34" rx="10" fill="#21467E"/>
  <rect x="380" y="324" width="194" height="34" rx="10" fill="#21467E"/>
  <rect x="132" y="382" width="442" height="24" rx="8" fill="#2D5A9E"/>
  <rect x="132" y="422" width="442" height="24" rx="8" fill="#2D5A9E"/>
  <rect x="132" y="462" width="442" height="24" rx="8" fill="#2D5A9E"/>
  <rect x="132" y="514" width="198" height="26" rx="13" fill="#103B29"/>
  <text x="166" y="532" fill="#8EF5B0" font-family="Arial, sans-serif" font-size="18" font-weight="700">Amount visible</text>
  <rect x="360" y="514" width="214" height="26" rx="13" fill="#103B29"/>
  <text x="394" y="532" fill="#8EF5B0" font-family="Arial, sans-serif" font-size="18" font-weight="700">Transfer ID visible</text>
  <rect x="654" y="222" width="486" height="342" rx="28" fill="#0C1429" stroke="#22457B" stroke-width="2"/>
  <circle cx="716" cy="286" r="28" fill="#103B29"/>
  <path d="M704 286L714 296L732 276" stroke="#8EF5B0" stroke-width="8" stroke-linecap="round" stroke-linejoin="round"/>
  <text x="764" y="294" fill="#F3FAFF" font-family="Arial, sans-serif" font-size="28" font-weight="700">What to include</text>
  <text x="700" y="352" fill="#D7E8FF" font-family="Arial, sans-serif" font-size="24">1. Full amount</text>
  <text x="700" y="398" fill="#D7E8FF" font-family="Arial, sans-serif" font-size="24">2. Transfer ID or transaction number</text>
  <text x="700" y="444" fill="#D7E8FF" font-family="Arial, sans-serif" font-size="24">3. Payment time</text>
  <text x="700" y="490" fill="#D7E8FF" font-family="Arial, sans-serif" font-size="24">4. Clear account name or number</text>
  <rect x="96" y="610" width="1044" height="34" rx="17" fill="#103B29"/>
  <text x="132" y="633" fill="#8EF5B0" font-family="Arial, sans-serif" font-size="22" font-weight="700">Use one clear screenshot or document. Do not crop out the amount or payment time.</text>
</svg>
