<svg xmlns="http://www.w3.org/2000/svg" width="1200" height="675" viewBox="0 0 1200 675" fill="none">
  <rect width="1200" height="675" rx="40" fill="#0B1020"/>
  <rect x="62" y="62" width="1076" height="551" rx="34" fill="#151C31" stroke="rgba(251,191,36,0.24)"/>
  <text x="104" y="128" fill="#FFE39E" font-size="20" font-family="Segoe UI, Arial, sans-serif" letter-spacing="3">ATOMIC-UI PROOF EXAMPLE</text>
  <text x="104" y="186" fill="#F8FBFF" font-size="56" font-weight="700" font-family="Segoe UI, Arial, sans-serif">Common Mistake</text>
  <text x="104" y="226" fill="#CCD5E8" font-size="24" font-family="Segoe UI, Arial, sans-serif">The screenshot is clear, but it still fails because it does not match the chosen method or order flow.</text>
  <rect x="104" y="270" width="232" height="42" rx="21" fill="#FBBF24"/>
  <text x="140" y="297" fill="#3B2502" font-size="18" font-weight="700" font-family="Segoe UI, Arial, sans-serif">CHECK BEFORE SENDING</text>

  <rect x="104" y="342" width="640" height="210" rx="28" fill="#F8FBFF"/>
  <rect x="138" y="376" width="572" height="28" rx="14" fill="#D9E2EF"/>
  <rect x="138" y="426" width="220" height="20" rx="10" fill="#C4D0E3"/>
  <rect x="138" y="460" width="220" height="20" rx="10" fill="#C4D0E3"/>
  <rect x="138" y="494" width="220" height="20" rx="10" fill="#C4D0E3"/>
  <rect x="428" y="418" width="250" height="110" rx="18" fill="#F59E0B" opacity="0.18"/>
  <text x="152" y="440" fill="#0F172A" font-size="18" font-weight="700" font-family="Segoe UI, Arial, sans-serif">Amount: 6,000 MMK</text>
  <text x="152" y="474" fill="#0F172A" font-size="18" font-weight="700" font-family="Segoe UI, Arial, sans-serif">Transfer ID: TX-503821</text>
  <text x="152" y="508" fill="#0F172A" font-size="18" font-weight="700" font-family="Segoe UI, Arial, sans-serif">Time: 20:38</text>
  <text x="444" y="448" fill="#7C2D12" font-size="18" font-weight="700" font-family="Segoe UI, Arial, sans-serif">Method mismatch</text>
  <text x="444" y="480" fill="#7C2D12" font-size="18" font-family="Segoe UI, Arial, sans-serif">Selected: AYA Pay</text>
  <text x="444" y="510" fill="#7C2D12" font-size="18" font-family="Segoe UI, Arial, sans-serif">Screenshot: KBZ Pay</text>

  <rect x="780" y="342" width="286" height="210" rx="28" fill="#15100A" stroke="rgba(251,191,36,0.24)"/>
  <text x="812" y="392" fill="#F8FBFF" font-size="26" font-weight="700" font-family="Segoe UI, Arial, sans-serif">Check these too</text>
  <text x="812" y="430" fill="#FFE7B1" font-size="20" font-family="Segoe UI, Arial, sans-serif">• Correct payment method</text>
  <text x="812" y="462" fill="#FFE7B1" font-size="20" font-family="Segoe UI, Arial, sans-serif">• Correct order / plan</text>
  <text x="812" y="494" fill="#FFE7B1" font-size="20" font-family="Segoe UI, Arial, sans-serif">• Not a duplicate screenshot</text>
  <text x="812" y="526" fill="#FFE7B1" font-size="20" font-family="Segoe UI, Arial, sans-serif">• Same chat, same active order</text>
</svg>
