<svg xmlns="http://www.w3.org/2000/svg" width="1200" height="675" viewBox="0 0 1200 675" fill="none">
  <rect width="1200" height="675" rx="40" fill="#111827"/>
  <rect x="62" y="62" width="1076" height="551" rx="34" fill="#1A1628" stroke="rgba(248,113,113,0.22)"/>
  <text x="104" y="128" fill="#FFC6C6" font-size="20" font-family="Segoe UI, Arial, sans-serif" letter-spacing="3">ATOMIC-UI PROOF EXAMPLE</text>
  <text x="104" y="186" fill="#F8FBFF" font-size="56" font-weight="700" font-family="Segoe UI, Arial, sans-serif">Bad Screenshot</text>
  <text x="104" y="226" fill="#D1D5E7" font-size="24" font-family="Segoe UI, Arial, sans-serif">Critical details are missing, cropped, or too unclear for review.</text>
  <rect x="104" y="270" width="196" height="42" rx="21" fill="#FB7185"/>
  <text x="144" y="297" fill="#3A0F1E" font-size="18" font-weight="700" font-family="Segoe UI, Arial, sans-serif">DO NOT SEND</text>

  <rect x="104" y="342" width="640" height="210" rx="28" fill="#F8FBFF"/>
  <rect x="140" y="380" width="260" height="24" rx="12" fill="#D5DDEA"/>
  <rect x="140" y="425" width="132" height="18" rx="9" fill="#D5DDEA"/>
  <rect x="140" y="458" width="118" height="18" rx="9" fill="#D5DDEA"/>
  <rect x="140" y="492" width="164" height="18" rx="9" fill="#D5DDEA"/>
  <rect x="358" y="404" width="286" height="128" rx="20" fill="#CBD5E1" opacity="0.66"/>
  <path d="M352 400L650 532" stroke="#EF4444" stroke-width="14" stroke-linecap="round"/>
  <path d="M650 400L352 532" stroke="#EF4444" stroke-width="14" stroke-linecap="round"/>
  <text x="148" y="438" fill="#7C8DAA" font-size="17" font-family="Segoe UI, Arial, sans-serif">Amount cropped</text>
  <text x="148" y="470" fill="#7C8DAA" font-size="17" font-family="Segoe UI, Arial, sans-serif">Transfer ID missing</text>
  <text x="148" y="504" fill="#7C8DAA" font-size="17" font-family="Segoe UI, Arial, sans-serif">Blurry duplicate crop</text>

  <rect x="780" y="342" width="286" height="210" rx="28" fill="#140F1D" stroke="rgba(248,113,113,0.22)"/>
  <text x="812" y="392" fill="#F8FBFF" font-size="26" font-weight="700" font-family="Segoe UI, Arial, sans-serif">Common problems</text>
  <text x="812" y="430" fill="#FFD1D1" font-size="20" font-family="Segoe UI, Arial, sans-serif">• Amount not visible</text>
  <text x="812" y="462" fill="#FFD1D1" font-size="20" font-family="Segoe UI, Arial, sans-serif">• Transfer ID hidden</text>
  <text x="812" y="494" fill="#FFD1D1" font-size="20" font-family="Segoe UI, Arial, sans-serif">• Screenshot reused or too blurry</text>
  <text x="812" y="526" fill="#FFD1D1" font-size="20" font-family="Segoe UI, Arial, sans-serif">• Wrong payment account shown</text>
</svg>
